<svg aria-hidden="true" style="position: absolute; width: 0; height: 0; overflow: hidden;" version="1.1" xmlns="http://www.w3.org/2000/svg" xmlns:xlink="http://www.w3.org/1999/xlink">
<defs>
<symbol id="icon-arrow" viewBox="0 0 16 32">
<path fill="#dedede" style="fill: var(--color1, #dedede)" d="M7.072 31.716c0.175 0.175 0.418 0.284 0.686 0.284s0.51-0.108 0.686-0.284l6.171-6.171c0.168-0.174 0.272-0.412 0.272-0.674 0-0.536-0.434-0.97-0.97-0.97-0.262 0-0.499 0.104-0.674 0.272l0-0-5.486 5.486-5.486-5.486c-0.173-0.163-0.406-0.262-0.663-0.262-0.536 0-0.97 0.434-0.97 0.97 0 0.257 0.1 0.491 0.263 0.664l-0-0 6.171 6.171zM6.788 0v31.030h1.939v-31.030h-1.939z"></path>
</symbol>
<symbol id="icon-twitter" viewBox="0 0 41 32">
<path fill="#959595" style="fill: var(--color2, #959595)" d="M39.321 3.955c-1.428 0.633-2.963 1.060-4.576 1.254 1.648-0.999 2.887-2.532 3.488-4.355l0.016-0.056c-1.457 0.881-3.153 1.552-4.96 1.917l-0.102 0.017c-1.459-1.554-3.526-2.523-5.82-2.523-4.404 0-7.974 3.57-7.974 7.974 0 0.646 0.077 1.274 0.222 1.876l-0.011-0.054c-6.64-0.344-12.481-3.5-16.397-8.291l-0.032-0.040c-0.678 1.147-1.078 2.527-1.078 4.001 0 0.002 0 0.004 0 0.006v-0c0 0.002 0 0.003 0 0.005 0 2.753 1.395 5.18 3.516 6.613l0.028 0.018c-1.332-0.044-2.569-0.408-3.65-1.018l0.040 0.021v0.102c0 0 0 0.001 0 0.001 0 3.845 2.721 7.054 6.342 7.807l0.052 0.009c-0.629 0.177-1.351 0.279-2.097 0.279-0.532 0-1.051-0.052-1.554-0.15l0.051 0.008c1.049 3.192 3.974 5.468 7.44 5.533l0.008 0c-2.691 2.128-6.134 3.414-9.877 3.414-0.008 0-0.017 0-0.025-0h0.001c-0.636 0-1.271-0.036-1.903-0.111 3.446 2.246 7.663 3.581 12.192 3.581 0.009 0 0.019 0 0.028-0h-0.001c14.662 0 22.679-12.145 22.679-22.679 0-0.342-0.009-0.687-0.025-1.030 1.565-1.14 2.884-2.507 3.939-4.066l0.036-0.057 0.003-0.004z"></path>
</symbol>
<symbol id="icon-viber" viewBox="0 0 32 32">
<path fill="#959595" style="fill: var(--color2, #959595)" d="M22.916 19.135c0.393 0.195 0.653 0.294 0.751 0.457s0.097 0.945-0.228 1.859c-0.327 0.915-1.889 1.748-2.64 1.86-0.673 0.1-1.526 0.143-2.463-0.156-0.567-0.179-1.296-0.42-2.23-0.823-3.923-1.693-6.484-5.644-6.679-5.905-0.196-0.262-1.596-2.119-1.596-4.044s1.008-2.871 1.367-3.263c0.359-0.393 0.781-0.49 1.043-0.49l-0.004 0c0.028-0 0.055-0 0.083-0 0.236 0 0.47 0.005 0.67 0.013 0.24 0.013 0.563-0.090 0.88 0.672 0.326 0.783 1.107 2.708 1.204 2.905 0.099 0.195 0.164 0.422 0.033 0.684-0.129 0.262-0.195 0.425-0.391 0.655-0.195 0.227-0.41 0.509-0.586 0.684-0.196 0.195-0.399 0.407-0.172 0.797 0.227 0.393 1.012 1.673 2.176 2.71 1.494 1.331 2.753 1.744 3.145 1.942 0.391 0.195 0.618 0.163 0.848-0.099 0.227-0.26 0.976-1.142 1.236-1.532 0.262-0.393 0.522-0.329 0.88-0.198 0.359 0.132 2.281 1.076 2.673 1.273zM15.783 28.877h-0.006c-0.001 0-0.001 0-0.002 0-2.442 0-4.728-0.674-6.679-1.847l0.059 0.033-0.473-0.282-4.925 1.293 1.315-4.8-0.31-0.493c-1.248-1.958-1.988-4.344-1.988-6.903 0-0.007 0-0.013 0-0.020v0.001c0.003-7.171 5.839-13.007 13.014-13.007 3.475 0 6.74 1.356 9.196 3.814 2.352 2.342 3.807 5.582 3.807 9.162 0 0.014-0 0.028-0 0.041v-0.002c-0.003 7.172-5.837 13.009-13.007 13.009zM26.852 4.799c-2.817-2.836-6.719-4.591-11.031-4.591-0.014 0-0.028 0-0.042 0h0.002c-8.625 0-15.648 7.021-15.651 15.651 0 2.758 0.719 5.45 2.089 7.823l-2.22 8.111 8.295-2.177c2.295 1.251 4.867 1.905 7.481 1.905h0.007c8.625 0 15.647-7.020 15.649-15.651 0-0.013 0-0.027 0-0.042 0-4.309-1.751-8.209-4.581-11.026l-0.001-0.001z"></path>
</symbol>
<symbol id="icon-ball" viewBox="0 0 33 32">
<path fill="#959595" style="fill: var(--color2, #959595)" d="M16.678 0.208c-8.717 0-15.791 7.073-15.791 15.792s7.073 15.792 15.791 15.792c8.701 0 15.792-7.073 15.792-15.792s-7.091-15.792-15.792-15.792zM27.108 7.487c1.872 2.266 3.019 5.193 3.050 8.386l0 0.007c-0.445-0.084-4.899-0.992-9.386-0.426-0.103-0.224-0.189-0.464-0.291-0.704-0.281-0.659-0.577-1.309-0.89-1.952 4.966-2.022 7.226-4.932 7.517-5.309zM16.679 2.538c3.424 0 6.56 1.283 8.94 3.389-0.24 0.343-2.278 3.068-7.073 4.865-2.211-4.058-4.659-7.383-5.036-7.897 0.937-0.228 2.013-0.359 3.119-0.359 0.017 0 0.034 0 0.051 0h-0.003v0.001zM10.941 3.804c0.359 0.48 2.756 3.821 5.001 7.795-6.304 1.679-11.869 1.644-12.47 1.644 0.874-4.179 3.702-7.655 7.469-9.437zM3.181 16.017v-0.412c0.583 0.017 7.126 0.102 13.857-1.919 0.393 0.755 0.753 1.524 1.095 2.295-0.17 0.051-0.359 0.102-0.531 0.154-6.953 2.244-10.653 8.375-10.961 8.89-2.147-2.375-3.46-5.539-3.46-9.009 0-0 0-0 0-0.001v0zM16.679 29.497c-0.007 0-0.015 0-0.023 0-3.125 0-6-1.070-8.279-2.864l0.029 0.022c0.24-0.497 2.98-5.775 10.585-8.428 0.035-0.017 0.052-0.017 0.086-0.035 1.167 2.901 2.164 6.332 2.825 9.88l0.053 0.345c-1.545 0.682-3.346 1.079-5.24 1.079-0.013 0-0.026-0-0.039-0h0.002zM24.199 27.184c-0.138-0.822-0.858-4.761-2.623-9.609 4.231-0.668 7.93 0.429 8.393 0.582-0.614 3.782-2.74 6.976-5.724 8.997l-0.047 0.030z"></path>
</symbol>
<symbol id="icon-be" viewBox="0 0 53 32">
<path fill="#959595" style="fill: var(--color2, #959595)" d="M33.721 2.116h12.864v3.086h-12.864v-3.084zM20.83 14.329c2.844-1.346 4.332-3.392 4.332-6.555 0-6.256-4.708-7.774-10.14-7.774h-14.964v31.396h15.38c5.765 0 11.177-2.743 11.177-9.12 0-3.94-1.884-6.853-5.785-7.948zM7.036 5.356h6.546c2.521 0 4.784 0.693 4.784 3.589 0 2.665-1.76 3.735-4.256 3.735h-7.074v-7.324zM14.485 26.064h-7.456v-8.645h7.604c3.070 0 5.010 1.269 5.010 4.482 0 3.163-2.315 4.164-5.157 4.164zM51.614 20.357c0-6.725-3.979-12.331-11.175-12.331-6.996 0-11.755 5.209-11.755 12.037 0 7.077 4.507 11.936 11.755 11.936 5.488 0 9.042-2.443 10.75-7.652h-5.564c-0.606 1.945-3.070 2.965-4.985 2.965-3.701 0-5.636-2.142-5.636-5.783h16.565c0.018-0.375 0.044-0.772 0.044-1.173zM35.004 17.591c0.201-2.99 2.219-4.859 5.237-4.859 3.172 0 4.759 1.842 5.036 4.859h-10.274z"></path>
</symbol>
<symbol id="icon-Group" viewBox="0 0 41 32">
<path fill="none" stroke="#fff" style="stroke: var(--color3, #fff)" stroke-linejoin="miter" stroke-linecap="round" stroke-miterlimit="4" stroke-width="3.5556" d="M36.699 1.778h-32.508c-1.122 0-2.032 0.91-2.032 2.032v24.38c0 1.122 0.91 2.032 2.032 2.032h32.508c1.122 0 2.032-0.91 2.032-2.032v-24.38c0-1.122-0.91-2.032-2.032-2.032z"></path>
<path fill="none" stroke="#fff" style="stroke: var(--color3, #fff)" stroke-linejoin="miter" stroke-linecap="round" stroke-miterlimit="4" stroke-width="3.5556" d="M2.158 4.825l18.286 11.175 18.286-11.175"></path>
</symbol>
<symbol id="icon-instagram" viewBox="0 0 33 32">
<path fill="#959595" style="fill: var(--color2, #959595)" d="M31.19 0h-29.44c-0.707 0-1.28 0.573-1.28 1.28v29.44c0 0.708 0.572 1.28 1.28 1.28h29.44c0.708 0 1.28-0.572 1.28-1.28v-29.44c0-0 0-0.001 0-0.001 0-0.706-0.572-1.279-1.279-1.279-0 0-0.001 0-0.002 0h0zM9.964 27.268h-4.749v-15.273h4.748v15.273zM7.591 9.908c-1.52 0-2.752-1.232-2.752-2.752s1.232-2.752 2.752-2.752v0c1.52 0 2.752 1.232 2.752 2.752s-1.232 2.752-2.752 2.752v0zM27.738 27.268h-4.743v-7.428c0-1.772-0.032-4.048-2.468-4.048-2.468 0-2.848 1.927-2.848 3.92v7.556h-4.74v-15.273h4.553v2.089h0.063c0.633-1.2 2.182-2.468 4.493-2.468 4.807 0 5.692 3.164 5.692 7.276v8.377z"></path>
</symbol>
<symbol id="icon-logo" viewBox="0 0 22 32">
<path fill="#dedede" style="fill: var(--color1, #dedede)" d="M8.681 27.013l4.826-13.884h3.72l-6.552 18.872h-3.963l-6.552-18.872h3.72l4.799 13.885z"></path>
<path fill="#dedede" style="fill: var(--color1, #dedede)" d="M13.414 5.632l-4.826 13.884h-3.72l6.551-18.872h3.963l6.552 18.872h-3.72l-4.799-13.886z"></path>
</symbol>
</defs>
</svg>
